# xmcd CD database file
#
# Track frame offsets:
#	150
#	14711
#	26426
#	41890
#	55664
#	66998
#	77292
#	88658
#	101137
#	112763
#	126572
#	139109
#	151153
#	165601
#	176745
#	189604
#	205909
#	221272
#	236836
#	252592
#	268566
#	283897
#	298039
#	313063
#	328141
#	343525
#
# Disc length: 4789 seconds
#
# Revision: 0
# Processed by: cddbd v1.5.2PL0 Copyright (c) Steve Scherf et al.
# Submitted via: CDex 1.51
#
DISCID=8c12b31a
DTITLE=Les rois du jazz - CD4
DYEAR=1995
DGENRE=Jazz
TTITLE0=Yes, sir, that's my baby
TTITLE1=Black bottom
TTITLE2=Charleston
TTITLE3=Sugar papa
TTITLE4=Chicago
TTITLE5=Smile
TTITLE6=That's a plenty
TTITLE7=Japanese sandman
TTITLE8=Nouvelle-Orléans
TTITLE9=12th street rag
TTITLE10=On ne sait jamais
TTITLE11=Le jour ou la pluie viendra
TTITLE12=Très moutarde
TTITLE13=La goualante du pauvre jean
TTITLE14=Nini peau d'chien
TTITLE15=In the mood
TTITLE16=American patrol
TTITLE17=Moonlight serenade
TTITLE18=Chattanooga choo choo
TTITLE19=Serenade in blue
TTITLE20=Kalamazoo
TTITLE21=Juke-box saturday night
TTITLE22=Pennsylvania six-five thousand
TTITLE23=My prayer
TTITLE24=Stardust
TTITLE25=Tuxedo junction
EXTD=YEAR: 1995
EXTT0=
EXTT1=
EXTT2=
EXTT3=
EXTT4=
EXTT5=
EXTT6=
EXTT7=
EXTT8=
EXTT9=
EXTT10=
EXTT11=
EXTT12=
EXTT13=
EXTT14=
EXTT15=
EXTT16=
EXTT17=
EXTT18=
EXTT19=
EXTT20=
EXTT21=
EXTT22=
EXTT23=
EXTT24=
EXTT25=
PLAYORDER=
